<?xml version="1.0" encoding="UTF-8" standalone="no"?> <svg xmlns="http://www.w3.org/2000/svg" viewBox="0 0 64 64"><g id="filled_outline" data-name="filled outline"><path d="M32,22a1,1,0,0,1-1-1V17a1,1,0,0,1,2,0v4A1,1,0,0,1,32,22Z" style="fill:#ea9d2d"/><path d="M15,17a1,1,0,0,1-1-1V7a1,1,0,0,1,2,0v9A1,1,0,0,1,15,17Z" style="fill:#8d7761"/><path d="M49,17a1,1,0,0,1-1-1V7a1,1,0,0,1,2,0v9A1,1,0,0,1,49,17Z" style="fill:#8d7761"/><path d="M58,24a1,1,0,0,1-1-1V15a1,1,0,0,1,2,0v8A1,1,0,0,1,58,24Z" style="fill:#8d7761"/><path d="M6,24a1,1,0,0,1-1-1V15a1,1,0,0,1,2,0v8A1,1,0,0,1,6,24Z" style="fill:#8d7761"/><polygon points="51 25 47 25 47 21 46 19 52 19 51 21 51 25" style="fill:#de952b"/><polygon points="51 31 47 31 47 27 46 25 52 25 51 27 51 31" style="fill:#de952b"/><polygon points="17 25 13 25 13 21 12 19 18 19 17 21 17 25" style="fill:#de952b"/><polygon points="17 31 13 31 13 27 12 25 18 25 17 27 17 31" style="fill:#de952b"/><polygon points="17 48 13 48 13 33 12 31 18 31 17 33 17 48" style="fill:#de952b"/><polygon points="17 19 13 19 15 9 17 19" style="fill:#8d7761"/><polygon points="51 48 47 48 47 33 46 31 52 31 51 33 51 48" style="fill:#de952b"/><polygon points="51 19 47 19 49 9 51 19" style="fill:#8d7761"/><rect x="24" y="29" width="16" height="5" style="fill:#ea9d2d"/><rect x="24" y="33" width="16" height="1" style="fill:#da922a"/><path d="M32,35a1,1,0,0,1-1-1V32a1,1,0,0,1,2,0v2A1,1,0,0,1,32,35Z" style="fill:#3b869e"/><path d="M36,35a1,1,0,0,1-1-1V32a1,1,0,0,1,2,0v2A1,1,0,0,1,36,35Z" style="fill:#3b869e"/><path d="M28,35a1,1,0,0,1-1-1V32a1,1,0,0,1,2,0v2A1,1,0,0,1,28,35Z" style="fill:#3b869e"/><path d="M28.344,31.069a.994.994,0,0,0-.657.931v2a.994.994,0,0,0,.657.931A.994.994,0,0,0,29,34V32A.994.994,0,0,0,28.344,31.069Z" style="fill:#1f6c8c"/><path d="M32.344,31.069a.994.994,0,0,0-.657.931v2a.994.994,0,0,0,.657.931A.994.994,0,0,0,33,34V32A.994.994,0,0,0,32.344,31.069Z" style="fill:#1f6c8c"/><path d="M36.344,31.069a.994.994,0,0,0-.657.931v2a.994.994,0,0,0,.657.931A.994.994,0,0,0,37,34V32A.994.994,0,0,0,36.344,31.069Z" style="fill:#1f6c8c"/><rect x="23" y="34" width="18" height="5" style="fill:#f3af3e"/><path d="M21,43H14V40a4,4,0,0,1,4-4h3Z" style="fill:#746250"/><path d="M43,43h7V40a4,4,0,0,0-4-4H43Z" style="fill:#746250"/><rect x="8" y="48" width="48" height="8" style="fill:#fbb540"/><rect x="13" y="44" width="6" height="4" style="fill:#ea9d2d"/><rect x="13" y="47" width="6" height="1" style="fill:#d68f29"/><rect x="45" y="44" width="6" height="4" style="fill:#ea9d2d"/><rect x="19" y="41" width="4" height="7" style="fill:#fbb540"/><rect x="41" y="41" width="4" height="7" style="fill:#fbb540"/><rect x="23" y="43" width="18" height="5" style="fill:#f3af3e"/><rect x="23" y="47" width="18" height="1" style="fill:#e8a73b"/><rect x="23" y="39" width="18" height="4" style="fill:#ea9d2d"/><rect x="23" y="39" width="18" height="1" style="fill:#da922a"/><path d="M41,39H23l2.261-1.809A10,10,0,0,1,31.508,35H33a10,10,0,0,1,8,4Z" style="fill:#8d7761"/><rect x="19" y="37" width="4" height="4" style="fill:#fbb540"/><path d="M23,37H19V36a2,2,0,0,1,2-2h0a2,2,0,0,1,2,2Z" style="fill:#8d7761"/><rect x="41" y="37" width="4" height="4" style="fill:#fbb540"/><rect x="19" y="41" width="4" height="1" style="fill:#ea9d2d"/><rect x="41" y="41" width="4" height="1" style="fill:#ea9d2d"/><path d="M45,37H41V36a2,2,0,0,1,2-2h0a2,2,0,0,1,2,2Z" style="fill:#8d7761"/><path d="M34,24H30V23a4.828,4.828,0,0,1,1.414-3.414L32,19l.586.586A4.828,4.828,0,0,1,34,23Z" style="fill:#ea9d2d"/><path d="M33,53a1,1,0,0,0-2,0v3h2Z" style="fill:#3b869e"/><path d="M37,53a1,1,0,0,0-2,0v3h2Z" style="fill:#3b869e"/><path d="M41,53a1,1,0,0,0-2,0v3h2Z" style="fill:#3b869e"/><path d="M45,53a1,1,0,0,0-2,0v3h2Z" style="fill:#3b869e"/><path d="M49,53a1,1,0,0,0-2,0v3h2Z" style="fill:#3b869e"/><path d="M53,53a1,1,0,0,0-2,0v3h2Z" style="fill:#3b869e"/><path d="M17,53a1,1,0,0,0-2,0v3h2Z" style="fill:#3b869e"/><path d="M16.25,52.05a.987.987,0,0,0-.75.95v3H17V53A.987.987,0,0,0,16.25,52.05Z" style="fill:#1f6c8c"/><path d="M12.25,52.05a.987.987,0,0,0-.75.95v3H13V53A.987.987,0,0,0,12.25,52.05Z" style="fill:#1f6c8c"/><path d="M13,53a1,1,0,0,0-2,0v3h2Z" style="fill:#3b869e"/><path d="M21,53a1,1,0,0,0-2,0v3h2Z" style="fill:#3b869e"/><path d="M21,56V53a.992.992,0,0,0-.664-.932.985.985,0,0,0-.789.957V56Z" style="fill:#1f6c8c"/><path d="M25,53a1,1,0,0,0-2,0v3h2Z" style="fill:#3b869e"/><path d="M29,53a1,1,0,0,0-2,0v3h2Z" style="fill:#3b869e"/><path d="M32,23h0a6.4,6.4,0,0,0-4.921,2.3L24,29H40l-3.079-3.695A6.4,6.4,0,0,0,32,23Z" style="fill:#8d7761"/><path d="M34,29h0a9.907,9.907,0,0,0-1.664-5.5L32,23l-.336.5A9.907,9.907,0,0,0,30,29h0" style="fill:#746250"/><rect x="31" y="46" width="2" height="2" style="fill:#3b869e"/><rect x="35" y="46" width="2" height="2" style="fill:#3b869e"/><rect x="27" y="46" width="2" height="2" style="fill:#3b869e"/><rect x="28" y="46.969" width="1" height="1.031" style="fill:#1f6c8c"/><rect x="32" y="46.969" width="1" height="1.031" style="fill:#1f6c8c"/><rect x="36" y="46.969" width="1" height="1.031" style="fill:#1f6c8c"/><polygon points="60 56 56 56 56 41 55 39 61 39 60 41 60 56" style="fill:#ea9d2d"/><rect x="56" y="33" width="4" height="6" style="fill:#ea9d2d"/><polygon points="60 33 56 33 56 29 55 27 61 27 60 29 60 33" style="fill:#ea9d2d"/><polygon points="60 39 56 39 56 35 55 33 61 33 60 35 60 39" style="fill:#ea9d2d"/><polygon points="60 27 56 27 58 17 60 27" style="fill:#8d7761"/><polygon points="8 56 4 56 4 41 3 39 9 39 8 41 8 56" style="fill:#ea9d2d"/><rect x="4" y="33" width="4" height="6" style="fill:#ea9d2d"/><polygon points="8 33 4 33 4 29 3 27 9 27 8 29 8 33" style="fill:#ea9d2d"/><polygon points="8 39 4 39 4 35 3 33 9 33 8 35 8 39" style="fill:#ea9d2d"/><polygon points="8 27 4 27 6 17 8 27" style="fill:#8d7761"/><path d="M16,40h0a3,3,0,0,1,3,3v1a0,0,0,0,1,0,0H13a0,0,0,0,1,0,0V43A3,3,0,0,1,16,40Z" style="fill:#8d7761"/><path d="M48,40h0a3,3,0,0,1,3,3v1a0,0,0,0,1,0,0H45a0,0,0,0,1,0,0V43a3,3,0,0,1,3-3Z" style="fill:#8d7761"/><rect x="45" y="47" width="6" height="1" style="fill:#d68f29"/><rect x="19" y="47" width="4" height="1" style="fill:#eeac3d"/><rect x="41" y="47" width="4" height="1" style="fill:#eeac3d"/><rect x="13" y="30" width="4" height="1" style="fill:#c98727"/><rect x="13" y="24" width="4" height="1" style="fill:#c98727"/><rect x="47" y="30" width="4" height="1" style="fill:#c98727"/><rect x="47" y="24" width="4" height="1" style="fill:#c98727"/><rect x="56" y="38" width="4" height="1" style="fill:#c98727"/><rect x="56" y="32" width="4" height="1" style="fill:#c98727"/><rect x="4" y="38" width="4" height="1" style="fill:#c98727"/><rect x="4" y="32" width="4" height="1" style="fill:#c98727"/><polygon points="4.2 26 4 27 8 27 7.8 26 4.2 26" style="fill:#816d58"/><polygon points="13.2 18 13 19 17 19 16.8 18 13.2 18" style="fill:#816d58"/><polygon points="47.2 18 47 19 51 19 50.8 18 47.2 18" style="fill:#816d58"/><polygon points="56.2 26 56 27 60 27 59.8 26 56.2 26" style="fill:#816d58"/><path d="M25,56V53a.992.992,0,0,0-.664-.932.985.985,0,0,0-.789.957V56Z" style="fill:#1f6c8c"/><path d="M29,56V53a.992.992,0,0,0-.664-.932.985.985,0,0,0-.789.957V56Z" style="fill:#1f6c8c"/><path d="M33,56V53a.992.992,0,0,0-.664-.932.985.985,0,0,0-.789.957V56Z" style="fill:#1f6c8c"/><path d="M37,56V53a.992.992,0,0,0-.664-.932.985.985,0,0,0-.789.957V56Z" style="fill:#1f6c8c"/><path d="M41,56V53a.992.992,0,0,0-.664-.932.985.985,0,0,0-.789.957V56Z" style="fill:#1f6c8c"/><path d="M45,56V53a.992.992,0,0,0-.664-.932.985.985,0,0,0-.789.957V56Z" style="fill:#1f6c8c"/><path d="M49,56V53a.992.992,0,0,0-.664-.932.985.985,0,0,0-.789.957V56Z" style="fill:#1f6c8c"/><path d="M53,56V53a.992.992,0,0,0-.664-.932.985.985,0,0,0-.789.957V56Z" style="fill:#1f6c8c"/><rect x="55" y="48" width="1" height="8" style="fill:#eeac3d"/><rect x="8" y="48" width="1" height="8" style="fill:#eeac3d"/><path d="M2.149,38.474a1,1,0,0,0-.044.973L3,41.236V56a1,1,0,0,0,1,1H60a1,1,0,0,0,1-1V41.236l.9-1.789A1,1,0,0,0,61,38V35.236l.9-1.789A1,1,0,0,0,61,32V29.236l.9-1.789A1,1,0,0,0,61,26h-.18L59,16.9V15a1,1,0,0,0-2,0v1.9L55.18,26H55a1,1,0,0,0-.9,1.447l.9,1.789V32a1,1,0,0,0-.9,1.447l.9,1.789V38a1,1,0,0,0-.9,1.447l.9,1.789V47H52V33.236l.9-1.789A1,1,0,0,0,52,30V27.236l.9-1.789A1,1,0,0,0,52,24V21.236l.9-1.789A1,1,0,0,0,52,18h-.18L50,8.9V7a1,1,0,0,0-2,0V8.9L46.18,18H46a1,1,0,0,0-.9,1.447l.9,1.789V24a1,1,0,0,0-.9,1.447l.9,1.789V30a1,1,0,0,0-.9,1.447l.9,1.789V35h-.184a2.963,2.963,0,0,0-4.1-1.7A.994.994,0,0,0,41,33V29c0-.016-.008-.03-.009-.046a.975.975,0,0,0-.066-.324c0-.007,0-.015-.006-.023a.984.984,0,0,0-.15-.247l-3.08-3.695a7.362,7.362,0,0,0-2.707-2.032,5.783,5.783,0,0,0-1.689-3.754L33,18.586V17a1,1,0,0,0-2,0v1.586l-.293.293a5.783,5.783,0,0,0-1.689,3.754,7.362,7.362,0,0,0-2.707,2.032l-3.08,3.7a.984.984,0,0,0-.15.247c0,.007,0,.015-.006.023a.975.975,0,0,0-.066.324c0,.016-.009.03-.009.046v4a.994.994,0,0,0-.713.3,2.963,2.963,0,0,0-4.1,1.7H18V33.236l.895-1.789A1,1,0,0,0,18,30V27.236l.895-1.789A1,1,0,0,0,18,24V21.236l.895-1.789A1,1,0,0,0,18,18h-.18L16,8.9V7a1,1,0,0,0-2,0V8.9L12.18,18H12a1,1,0,0,0-.895,1.447L12,21.236V24a1,1,0,0,0-.895,1.447L12,27.236V30a1,1,0,0,0-.895,1.447L12,33.236V47H9V41.236L9.9,39.447A1,1,0,0,0,9,38V35.236L9.9,33.447A1,1,0,0,0,9,32V29.236L9.9,27.447A1,1,0,0,0,9,26H8.82L7,16.9V15a1,1,0,0,0-2,0v1.9L3.18,26H3a1,1,0,0,0-.895,1.447L3,29.236V32a1,1,0,0,0-.895,1.447L3,35.236V38A1,1,0,0,0,2.149,38.474ZM58,22.1l.78,3.9H57.22ZM59.382,28l-.277.553A1,1,0,0,0,59,29v3H57V29a1,1,0,0,0-.1-.447L56.618,28Zm0,6-.277.553A1,1,0,0,0,59,35v3H57V35a1,1,0,0,0-.1-.447L56.618,34Zm0,6-.277.553A1,1,0,0,0,59,41V55H57V41a1,1,0,0,0-.1-.447L56.618,40ZM49,14.1l.78,3.9H48.22ZM50.382,20l-.277.553A1,1,0,0,0,50,21v3H48V21a1,1,0,0,0-.1-.447L47.618,20Zm0,6-.277.553A1,1,0,0,0,50,27v3H48V27a1,1,0,0,0-.1-.447L47.618,26Zm0,6-.277.553A1,1,0,0,0,50,33v4a4.943,4.943,0,0,0-2-1.583V33a1,1,0,0,0-.1-.447L47.618,32ZM46,37a2.713,2.713,0,0,1,.754.1,2.978,2.978,0,0,1,2.1,2A4.024,4.024,0,0,0,48,39a3.959,3.959,0,0,0-2,.556Zm2,4a2,2,0,0,1,2,2H46A2,2,0,0,1,48,41Zm-2,4h4v2H46ZM43,35a1,1,0,0,1,1,1H42A1,1,0,0,1,43,35Zm-1,4V38h2v2H42Zm0,4V42h2v5H42Zm-4.471-8H40v1.523A11.091,11.091,0,0,0,37.529,35Zm1.123,3h-12.8l.035-.028A9.039,9.039,0,0,1,31.508,36H33A9.044,9.044,0,0,1,38.652,38Zm-2.5-12.055L37.865,28H34.949a10.876,10.876,0,0,0-.976-3.621A5.384,5.384,0,0,1,36.152,25.945ZM32,20.42a3.779,3.779,0,0,1,.867,1.633,7.118,7.118,0,0,0-1.734,0A3.779,3.779,0,0,1,32,20.42ZM32,24.9a8.88,8.88,0,0,1,.944,3.1H31.056A8.88,8.88,0,0,1,32,24.9Zm-4.152,1.047a5.384,5.384,0,0,1,2.179-1.566A10.876,10.876,0,0,0,29.051,28H26.135ZM25,30H39v3H37V32a1,1,0,0,0-2,0v1H33V32a1,1,0,0,0-2,0v1H29V32a1,1,0,0,0-2,0v1H25Zm-1,6V35h2.937a10.938,10.938,0,0,0-2.3,1.411L24,36.919Zm0,5V40H40v2H24Zm0,3H40v3H37V46H35v1H33V46H31v1H29V46H27v1H24Zm-3-9a1,1,0,0,1,1,1H20A1,1,0,0,1,21,35Zm-1,3h2v2H20Zm0,6V42h2v5H20Zm-2-7v2.556a3.861,3.861,0,0,0-2.856-.459,2.994,2.994,0,0,1,2.127-2A2.634,2.634,0,0,1,18,37Zm-4,6a2,2,0,0,1,4,0Zm4,2v2H14V45ZM15,14.1l.78,3.9H14.22ZM16.382,20l-.277.553A1,1,0,0,0,16,21v3H14V21a1,1,0,0,0-.105-.447L13.618,20Zm0,6-.277.553A1,1,0,0,0,16,27v3H14V27a1,1,0,0,0-.105-.447L13.618,26Zm0,6-.277.553A1,1,0,0,0,16,33v2.422a4.953,4.953,0,0,0-2,1.585V33a1,1,0,0,0-.105-.447L13.618,32ZM9,49H55v6H53V53a1,1,0,0,0-2,0v2H49V53a1,1,0,0,0-2,0v2H45V53a1,1,0,0,0-2,0v2H41V53a1,1,0,0,0-2,0v2H37V53a1,1,0,0,0-2,0v2H33V53a1,1,0,0,0-2,0v2H29V53a1,1,0,0,0-2,0v2H25V53a1,1,0,0,0-2,0v2H21V53a1,1,0,0,0-2,0v2H17V53a1,1,0,0,0-2,0v2H13V53a1,1,0,0,0-2,0v2H9ZM6,22.1,6.78,26H5.22ZM7.382,28l-.277.553A1,1,0,0,0,7,29v3H5V29a1,1,0,0,0-.105-.447L4.618,28Zm0,6-.277.553A1,1,0,0,0,7,35v3H5V35a1,1,0,0,0-.105-.447L4.618,34Zm0,6-.277.553A1,1,0,0,0,7,41V55H5V41a1,1,0,0,0-.105-.447L4.618,40Z"/></g></svg>